<svg height="512" viewBox="0 0 256 256" width="512" xmlns="http://www.w3.org/2000/svg"><g id="Layer_30"><g><g><g><path d="m35.655 43.776c-7.65 0-13.852 6.202-13.852 13.852v145.872h29.212v-159.724z" fill="#5290db"/></g></g><g><g><path d="m35.719 54.267c-1.892 0-3.426 1.534-3.426 3.426v145.807h18.721v-149.233z" fill="#b598f9"/></g></g><g><g><path d="m35.719 54.267c-1.892 0-3.426 1.534-3.426 3.426v10.736h18.721v-14.162z" fill="#3a70bf"/></g></g><g><g><path d="m220.345 43.776h-15.36v159.724h29.212v-145.872c0-7.65-6.201-13.852-13.852-13.852z" fill="#5290db"/></g></g><g><g><path d="m220.281 54.267h-15.295v149.233h18.721v-145.807c0-1.892-1.534-3.426-3.426-3.426z" fill="#b598f9"/></g></g><g><g><path d="m220.281 54.267h-15.295v14.162h18.721v-10.736c0-1.892-1.534-3.426-3.426-3.426z" fill="#3a70bf"/></g></g><g><g><path d="m200.003 2.5h-144.006c-2.74 0-4.982 2.242-4.982 4.982v196.018h153.97v-196.018c0-2.74-2.242-4.982-4.982-4.982z" fill="#fcdd86"/></g></g><g><g><path d="m51.015 21.354h46.318v182.146h-46.318z" fill="#f5c84c"/></g></g><g><g><path d="m200.003 2.5h-144.006c-2.74 0-4.982 2.242-4.982 4.982v13.871h153.97v-13.871c0-2.74-2.242-4.982-4.982-4.982z" fill="#5290db"/></g></g><g><g><path d="m55.997 2.5c-2.74 0-4.982 2.242-4.982 4.982v13.871h21.249v-18.853z" fill="#3a70bf"/></g></g><g><g><path d="m247.968 203.5h-239.936c-3.055 0-5.532 2.477-5.532 5.532 0 10.752 8.716 19.468 19.468 19.468h212.063c10.752 0 19.468-8.716 19.468-19.468.001-3.055-2.476-5.532-5.531-5.532z" fill="#edf4fc"/></g></g><g><g><path d="m83.931 203.5v5.974c0 3.174 2.573 5.748 5.748 5.748h76.641c3.175 0 5.748-2.574 5.748-5.748v-5.974z" fill="#c7d7e5"/></g></g><g><g><g><path d="m50.015 41.276h-14.36c-9.017 0-16.352 7.335-16.352 16.352v144.785c0 1.381 1.119 2.5 2.5 2.5s2.5-1.119 2.5-2.5v-144.785c0-6.26 5.092-11.352 11.352-11.352h14.36c1.381 0 2.5-1.119 2.5-2.5s-1.119-2.5-2.5-2.5z"/></g></g><g><g><path d="m220.346 41.276h-14.36c-1.381 0-2.5 1.119-2.5 2.5s1.119 2.5 2.5 2.5h14.36c6.26 0 11.352 5.092 11.352 11.352v144.827c0 1.381 1.119 2.5 2.5 2.5s2.5-1.119 2.5-2.5v-144.827c-.001-9.017-7.336-16.352-16.352-16.352z"/></g></g></g><g><g><g><path d="m50.015 51.767h-14.295c-3.268 0-5.927 2.659-5.927 5.926v144.762c0 1.381 1.119 2.5 2.5 2.5s2.5-1.119 2.5-2.5v-144.762c0-.511.416-.926.927-.926h14.295c1.381 0 2.5-1.119 2.5-2.5s-1.119-2.5-2.5-2.5z"/></g></g><g><g><path d="m220.28 51.767h-14.295c-1.381 0-2.5 1.119-2.5 2.5s1.119 2.5 2.5 2.5h14.295c.511 0 .927.416.927.926v144.762c0 1.381 1.119 2.5 2.5 2.5s2.5-1.119 2.5-2.5v-144.762c0-3.268-2.659-5.926-5.927-5.926z"/></g></g></g><g><g><path d="m223 65.929h-17.016c-1.381 0-2.5 1.119-2.5 2.5s1.119 2.5 2.5 2.5h17.016c1.381 0 2.5-1.119 2.5-2.5s-1.119-2.5-2.5-2.5z"/></g></g><g><g><path d="m50.015 65.929h-16.015c-1.381 0-2.5 1.119-2.5 2.5s1.119 2.5 2.5 2.5h16.015c1.381 0 2.5-1.119 2.5-2.5s-1.119-2.5-2.5-2.5z"/></g></g><g><g><g><path d="m247.969 201h-239.938c-4.428 0-8.031 3.603-8.031 8.032 0 12.113 9.855 21.968 21.969 21.968h212.063c12.113 0 21.969-9.855 21.969-21.968-.001-4.429-3.604-8.032-8.032-8.032zm-13.938 25h-212.062c-9.357 0-16.969-7.612-16.969-16.968 0-1.672 1.359-3.032 3.031-3.032h239.938c1.672 0 3.031 1.36 3.031 3.032 0 9.356-7.612 16.968-16.969 16.968z"/></g></g></g><g><g><path d="m172.068 201.976c-1.381 0-2.5 1.119-2.5 2.5v4.999c0 1.791-1.457 3.248-3.248 3.248h-76.64c-1.791 0-3.248-1.457-3.248-3.248v-4.874c0-1.381-1.119-2.5-2.5-2.5s-2.5 1.119-2.5 2.5v4.874c0 4.548 3.7 8.248 8.248 8.248h76.641c4.548 0 8.248-3.7 8.248-8.248v-4.999c-.001-1.381-1.12-2.5-2.501-2.5z"/></g></g><g><g><path d="m200.003 0h-144.006c-4.126 0-7.482 3.356-7.482 7.482v194.93c0 1.381 1.119 2.5 2.5 2.5s2.5-1.119 2.5-2.5v-194.93c0-1.368 1.113-2.482 2.482-2.482h144.006c1.369 0 2.482 1.114 2.482 2.482v194.973c0 1.381 1.119 2.5 2.5 2.5s2.5-1.119 2.5-2.5v-194.973c0-4.126-3.356-7.482-7.482-7.482z"/></g></g><g><g><path d="m12.875 122.51c-3.157-.561-5.613-3.017-6.245-6.104 0-.14-.281-.14-.281 0-.632 3.087-3.087 5.543-6.245 6.104-.14 0-.14.211 0 .281 3.157.561 5.613 3.017 6.245 6.104 0 .14.281.14.281 0 .631-3.087 3.087-5.543 6.245-6.104.141-.071.141-.281 0-.281z" fill="#70d6f9"/></g></g><g><g><path d="m133.2 244.1h-2.3v-2.3c0-1.7-1.4-3.2-3.2-3.2s-3.2 1.4-3.2 3.2v2.3h-2.3c-1.7 0-3.2 1.4-3.2 3.2s1.4 3.2 3.2 3.2h2.3v2.3c0 1.7 1.4 3.2 3.2 3.2s3.2-1.4 3.2-3.2v-2.3h2.3c1.7 0 3.2-1.4 3.2-3.2s-1.4-3.2-3.2-3.2z" fill="#87d147"/></g></g><g><g><path d="m220.442 2c-1.878 0-3.4 1.522-3.4 3.4s1.522 3.4 3.4 3.4 3.4-1.522 3.4-3.4-1.522-3.4-3.4-3.4z" fill="#fc657e"/></g></g><g><g><path d="m161.442 240c-1.878 0-3.4 1.522-3.4 3.4s1.522 3.4 3.4 3.4 3.4-1.522 3.4-3.4-1.522-3.4-3.4-3.4z" fill="#f5c84c"/></g></g><g><g><path d="m246.442 27.396c-4.5-.8-8-4.3-8.9-8.7 0-.2-.4-.2-.4 0-.9 4.4-4.4 7.9-8.9 8.7-.2 0-.2.3 0 .4 4.5.8 8 4.3 8.9 8.7 0 .2.4.2.4 0 .9-4.4 4.4-7.9 8.9-8.7.2-.099.2-.4 0-.4z" fill="#f5c84c"/></g></g><g><g><path d="m204 18.854h-152.154c-1.381 0-2.5 1.119-2.5 2.5s1.119 2.5 2.5 2.5h152.154c1.381 0 2.5-1.119 2.5-2.5s-1.119-2.5-2.5-2.5z"/></g></g><g><g><path d="m187.833 34.258h-19.75c-1.381 0-2.5 1.119-2.5 2.5s1.119 2.5 2.5 2.5h19.75c1.381 0 2.5-1.119 2.5-2.5s-1.119-2.5-2.5-2.5z"/></g></g><g><g><path d="m158.583 34.258h-14.917c-1.381 0-2.5 1.119-2.5 2.5s1.119 2.5 2.5 2.5h14.917c1.381 0 2.5-1.119 2.5-2.5s-1.119-2.5-2.5-2.5z"/></g></g><g><g><path d="m133.833 34.258h-4c-1.381 0-2.5 1.119-2.5 2.5s1.119 2.5 2.5 2.5h4c1.381 0 2.5-1.119 2.5-2.5s-1.119-2.5-2.5-2.5z"/></g></g><g><g><path d="m187.833 48.045h-27.749c-1.381 0-2.5 1.119-2.5 2.5s1.119 2.5 2.5 2.5h27.749c1.381 0 2.5-1.119 2.5-2.5s-1.119-2.5-2.5-2.5z"/></g></g><g><g><path d="m151.126 48.045h-7.46c-1.381 0-2.5 1.119-2.5 2.5s1.119 2.5 2.5 2.5h7.46c1.381 0 2.5-1.119 2.5-2.5s-1.119-2.5-2.5-2.5z"/></g></g><g><g><path d="m133.833 48.045h-4c-1.381 0-2.5 1.119-2.5 2.5s1.119 2.5 2.5 2.5h4c1.381 0 2.5-1.119 2.5-2.5s-1.119-2.5-2.5-2.5z"/></g></g><g><g><path d="m187.833 61.832h-44.167c-1.381 0-2.5 1.119-2.5 2.5s1.119 2.5 2.5 2.5h44.167c1.381 0 2.5-1.119 2.5-2.5s-1.119-2.5-2.5-2.5z"/></g></g><g><g><path d="m133.833 61.832h-4c-1.381 0-2.5 1.119-2.5 2.5s1.119 2.5 2.5 2.5h4c1.381 0 2.5-1.119 2.5-2.5s-1.119-2.5-2.5-2.5z"/></g></g><g><g><path d="m115.833 34.258h-4c-1.381 0-2.5 1.119-2.5 2.5s1.119 2.5 2.5 2.5h4c1.381 0 2.5-1.119 2.5-2.5s-1.119-2.5-2.5-2.5z"/></g></g><g><g><path d="m115.833 48.045h-4c-1.381 0-2.5 1.119-2.5 2.5s1.119 2.5 2.5 2.5h4c1.381 0 2.5-1.119 2.5-2.5s-1.119-2.5-2.5-2.5z"/></g></g><g><g><path d="m115.833 61.832h-4c-1.381 0-2.5 1.119-2.5 2.5s1.119 2.5 2.5 2.5h4c1.381 0 2.5-1.119 2.5-2.5s-1.119-2.5-2.5-2.5z"/></g></g><g><g><path d="m187.833 75.619h-19.75c-1.381 0-2.5 1.119-2.5 2.5s1.119 2.5 2.5 2.5h19.75c1.381 0 2.5-1.119 2.5-2.5s-1.119-2.5-2.5-2.5z"/></g></g><g><g><path d="m187.833 89.406h-27.749c-1.381 0-2.5 1.119-2.5 2.5s1.119 2.5 2.5 2.5h27.749c1.381 0 2.5-1.119 2.5-2.5s-1.119-2.5-2.5-2.5z"/></g></g><g><g><path d="m187.833 103.193h-44.167c-1.381 0-2.5 1.119-2.5 2.5s1.119 2.5 2.5 2.5h44.167c1.381 0 2.5-1.119 2.5-2.5s-1.119-2.5-2.5-2.5z"/></g></g><g><g><path d="m133.833 103.193h-4c-1.381 0-2.5 1.119-2.5 2.5s1.119 2.5 2.5 2.5h4c1.381 0 2.5-1.119 2.5-2.5s-1.119-2.5-2.5-2.5z"/></g></g><g><g><path d="m115.833 75.619h-4c-1.381 0-2.5 1.119-2.5 2.5s1.119 2.5 2.5 2.5h4c1.381 0 2.5-1.119 2.5-2.5s-1.119-2.5-2.5-2.5z"/></g></g><g><g><path d="m115.833 89.406h-4c-1.381 0-2.5 1.119-2.5 2.5s1.119 2.5 2.5 2.5h4c1.381 0 2.5-1.119 2.5-2.5s-1.119-2.5-2.5-2.5z"/></g></g><g><g><path d="m115.833 103.193h-4c-1.381 0-2.5 1.119-2.5 2.5s1.119 2.5 2.5 2.5h4c1.381 0 2.5-1.119 2.5-2.5s-1.119-2.5-2.5-2.5z"/></g></g><g><g><path d="m187.833 116.979h-19.75c-1.381 0-2.5 1.119-2.5 2.5s1.119 2.5 2.5 2.5h19.75c1.381 0 2.5-1.119 2.5-2.5s-1.119-2.5-2.5-2.5z"/></g></g><g><g><path d="m158.583 116.979h-14.917c-1.381 0-2.5 1.119-2.5 2.5s1.119 2.5 2.5 2.5h14.917c1.381 0 2.5-1.119 2.5-2.5s-1.119-2.5-2.5-2.5z"/></g></g><g><g><path d="m133.833 116.979h-4c-1.381 0-2.5 1.119-2.5 2.5s1.119 2.5 2.5 2.5h4c1.381 0 2.5-1.119 2.5-2.5s-1.119-2.5-2.5-2.5z"/></g></g><g><g><path d="m187.833 130.767h-27.749c-1.381 0-2.5 1.119-2.5 2.5s1.119 2.5 2.5 2.5h27.749c1.381 0 2.5-1.119 2.5-2.5s-1.119-2.5-2.5-2.5z"/></g></g><g><g><path d="m187.833 144.554h-44.167c-1.381 0-2.5 1.119-2.5 2.5s1.119 2.5 2.5 2.5h44.167c1.381 0 2.5-1.119 2.5-2.5s-1.119-2.5-2.5-2.5z"/></g></g><g><g><path d="m115.833 116.979h-4c-1.381 0-2.5 1.119-2.5 2.5s1.119 2.5 2.5 2.5h4c1.381 0 2.5-1.119 2.5-2.5s-1.119-2.5-2.5-2.5z"/></g></g><g><g><path d="m85.617 34.258h-23.868c-1.381 0-2.5 1.119-2.5 2.5s1.119 2.5 2.5 2.5h23.868c1.381 0 2.5-1.119 2.5-2.5s-1.119-2.5-2.5-2.5z"/></g></g><g><g><path d="m85.617 48.045h-23.868c-1.381 0-2.5 1.119-2.5 2.5s1.119 2.5 2.5 2.5h23.868c1.381 0 2.5-1.119 2.5-2.5s-1.119-2.5-2.5-2.5z"/></g></g><g><g><path d="m85.617 61.832h-23.868c-1.381 0-2.5 1.119-2.5 2.5s1.119 2.5 2.5 2.5h23.868c1.381 0 2.5-1.119 2.5-2.5s-1.119-2.5-2.5-2.5z"/></g></g><g><g><path d="m85.617 75.619h-23.868c-1.381 0-2.5 1.119-2.5 2.5s1.119 2.5 2.5 2.5h23.868c1.381 0 2.5-1.119 2.5-2.5s-1.119-2.5-2.5-2.5z"/></g></g><g><g><path d="m85.617 89.406h-23.868c-1.381 0-2.5 1.119-2.5 2.5s1.119 2.5 2.5 2.5h23.868c1.381 0 2.5-1.119 2.5-2.5s-1.119-2.5-2.5-2.5z"/></g></g><g><g><path d="m85.617 103.193h-23.868c-1.381 0-2.5 1.119-2.5 2.5s1.119 2.5 2.5 2.5h23.868c1.381 0 2.5-1.119 2.5-2.5s-1.119-2.5-2.5-2.5z"/></g></g><g><g><path d="m85.617 116.979h-23.868c-1.381 0-2.5 1.119-2.5 2.5s1.119 2.5 2.5 2.5h23.868c1.381 0 2.5-1.119 2.5-2.5s-1.119-2.5-2.5-2.5z"/></g></g><g><g><path d="m115.833 130.767h-4c-1.381 0-2.5 1.119-2.5 2.5s1.119 2.5 2.5 2.5h4c1.381 0 2.5-1.119 2.5-2.5s-1.119-2.5-2.5-2.5z"/></g></g><g><g><path d="m115.833 144.554h-4c-1.381 0-2.5 1.119-2.5 2.5s1.119 2.5 2.5 2.5h4c1.381 0 2.5-1.119 2.5-2.5s-1.119-2.5-2.5-2.5z"/></g></g><g><g><path d="m187.833 158.341h-19.75c-1.381 0-2.5 1.119-2.5 2.5s1.119 2.5 2.5 2.5h19.75c1.381 0 2.5-1.119 2.5-2.5s-1.119-2.5-2.5-2.5z"/></g></g><g><g><path d="m158.583 158.341h-14.917c-1.381 0-2.5 1.119-2.5 2.5s1.119 2.5 2.5 2.5h14.917c1.381 0 2.5-1.119 2.5-2.5s-1.119-2.5-2.5-2.5z"/></g></g><g><g><path d="m133.833 158.341h-4c-1.381 0-2.5 1.119-2.5 2.5s1.119 2.5 2.5 2.5h4c1.381 0 2.5-1.119 2.5-2.5s-1.119-2.5-2.5-2.5z"/></g></g><g><g><path d="m187.833 172.128h-27.749c-1.381 0-2.5 1.119-2.5 2.5s1.119 2.5 2.5 2.5h27.749c1.381 0 2.5-1.119 2.5-2.5s-1.119-2.5-2.5-2.5z"/></g></g><g><g><path d="m151.126 172.128h-7.46c-1.381 0-2.5 1.119-2.5 2.5s1.119 2.5 2.5 2.5h7.46c1.381 0 2.5-1.119 2.5-2.5s-1.119-2.5-2.5-2.5z"/></g></g><g><g><path d="m133.833 172.128h-4c-1.381 0-2.5 1.119-2.5 2.5s1.119 2.5 2.5 2.5h4c1.381 0 2.5-1.119 2.5-2.5s-1.119-2.5-2.5-2.5z"/></g></g><g><g><path d="m133.833 185.915h-4c-1.381 0-2.5 1.119-2.5 2.5s1.119 2.5 2.5 2.5h4c1.381 0 2.5-1.119 2.5-2.5s-1.119-2.5-2.5-2.5z"/></g></g><g><g><path d="m115.833 158.341h-4c-1.381 0-2.5 1.119-2.5 2.5s1.119 2.5 2.5 2.5h4c1.381 0 2.5-1.119 2.5-2.5s-1.119-2.5-2.5-2.5z"/></g></g><g><g><path d="m115.833 172.128h-4c-1.381 0-2.5 1.119-2.5 2.5s1.119 2.5 2.5 2.5h4c1.381 0 2.5-1.119 2.5-2.5s-1.119-2.5-2.5-2.5z"/></g></g><g><g><path d="m115.833 185.915h-4c-1.381 0-2.5 1.119-2.5 2.5s1.119 2.5 2.5 2.5h4c1.381 0 2.5-1.119 2.5-2.5s-1.119-2.5-2.5-2.5z"/></g></g><g><g><path d="m97.333 19.316c-1.381 0-2.5 1.119-2.5 2.5v180.551c0 1.381 1.119 2.5 2.5 2.5s2.5-1.119 2.5-2.5v-180.551c0-1.38-1.119-2.5-2.5-2.5z"/></g></g><g><g><path d="m192.958 9.142h-11.763c-1.381 0-2.5 1.119-2.5 2.5s1.119 2.5 2.5 2.5h11.763c1.381 0 2.5-1.119 2.5-2.5s-1.119-2.5-2.5-2.5z"/></g></g><g><g><path d="m170.13 9.142h-86.671c-1.381 0-2.5 1.119-2.5 2.5s1.119 2.5 2.5 2.5h86.671c1.381 0 2.5-1.119 2.5-2.5s-1.119-2.5-2.5-2.5z"/></g></g><g><g><path d="m72.264.941c-1.381 0-2.5 1.119-2.5 2.5v17.105c0 1.381 1.119 2.5 2.5 2.5s2.5-1.119 2.5-2.5v-17.105c0-1.381-1.119-2.5-2.5-2.5z"/></g></g></g></g></svg>