<svg height="512pt" viewBox="0 -55 512 511" width="512pt" xmlns="http://www.w3.org/2000/svg"><g fill-rule="evenodd"><path d="m10 10.5h492v381.78125h-492zm0 0" fill="#88c9f7"/><path d="m10 10.5h492v78.03125h-492zm0 0" fill="#49aaee"/><path d="m135.660156 181.351562c15.054688 0 27.332032-12.277343 27.332032-27.332031 0-15.054687-12.277344-27.332031-27.332032-27.332031-15.054687 0-27.332031 12.277344-27.332031 27.332031 0 15.054688 12.277344 27.332031 27.332031 27.332031zm0 0" fill="#35dc86"/><path d="m135.660156 268.019531c15.054688 0 27.332032-12.277343 27.332032-27.332031s-12.277344-27.332031-27.332032-27.332031c-15.054687 0-27.332031 12.277343-27.332031 27.332031s12.277344 27.332031 27.332031 27.332031zm0 0" fill="#fa5c66"/><path d="m135.660156 354.6875c15.054688 0 27.332032-12.277344 27.332032-27.335938 0-15.054687-12.277344-27.332031-27.332032-27.332031-15.054687 0-27.332031 12.277344-27.332031 27.332031 0 15.058594 12.277344 27.335938 27.332031 27.335938zm0 0" fill="#fed049"/><path d="m502 188.535156c-5.523438 0-10 4.476563-10 10v183.746094h-472v-20c0-5.523438-4.476562-10-10-10s-10 4.476562-10 10v30c0 5.523438 4.476562 10 10 10h492c5.523438 0 10-4.476562 10-10v-193.746094c0-5.523437-4.476562-10-10-10zm0 0"/><path d="m502 .5h-492c-5.523438 0-10 4.476562-10 10v271.78125c0 5.523438 4.476562 10 10 10s10-4.476562 10-10v-183.75h472v20.003906c0 5.519532 4.476562 10 10 10s10-4.480468 10-10v-108.035156c0-5.523438-4.476562-10-10-10zm-482 78.03125v-58.03125h472v58.03125zm0 0"/><path d="m462.996094 39.515625h-21.296875c-5.523438 0-10 4.476563-10 10s4.476562 10 10 10h21.296875c5.523437 0 10-4.476563 10-10s-4.476563-10-10-10zm0 0"/><path d="m405.695312 39.515625h-21.296874c-5.523438 0-10 4.476563-10 10s4.476562 10 10 10h21.296874c5.523438 0 10-4.476563 10-10s-4.476562-10-10-10zm0 0"/><path d="m348.398438 39.515625h-21.300782c-5.519531 0-10 4.476563-10 10s4.480469 10 10 10h21.300782c5.523437 0 10-4.476563 10-10s-4.476563-10-10-10zm0 0"/><path d="m135.660156 191.351562c20.585938 0 37.332032-16.746093 37.332032-37.332031 0-20.585937-16.746094-37.332031-37.332032-37.332031-20.585937 0-37.332031 16.746094-37.332031 37.332031 0 20.585938 16.746094 37.332031 37.332031 37.332031zm0-54.664062c9.558594 0 17.332032 7.773438 17.332032 17.332031 0 9.558594-7.773438 17.332031-17.332032 17.332031s-17.332031-7.773437-17.332031-17.332031c0-9.558593 7.773437-17.332031 17.332031-17.332031zm0 0"/><path d="m135.660156 278.019531c20.585938 0 37.332032-16.746093 37.332032-37.332031s-16.746094-37.332031-37.332032-37.332031c-20.585937 0-37.332031 16.746093-37.332031 37.332031s16.746094 37.332031 37.332031 37.332031zm0-54.664062c9.558594 0 17.332032 7.773437 17.332032 17.332031s-7.773438 17.332031-17.332032 17.332031-17.332031-7.773437-17.332031-17.332031 7.773437-17.332031 17.332031-17.332031zm0 0"/><path d="m135.660156 364.6875c20.585938 0 37.332032-16.75 37.332032-37.335938 0-20.582031-16.746094-37.332031-37.332032-37.332031-20.585937 0-37.332031 16.75-37.332031 37.332031 0 20.585938 16.746094 37.335938 37.332031 37.335938zm0-54.667969c9.558594 0 17.332032 7.777344 17.332032 17.332031 0 9.558594-7.773438 17.335938-17.332032 17.335938s-17.332031-7.777344-17.332031-17.335938c0-9.554687 7.773437-17.332031 17.332031-17.332031zm0 0"/><path d="m219.996094 164.019531h192.085937c5.519531 0 10-4.476562 10-10 0-5.523437-4.480469-10-10-10h-192.085937c-5.523438 0-10 4.476563-10 10 0 5.523438 4.476562 10 10 10zm0 0"/><path d="m219.996094 250.6875h192.085937c5.519531 0 10-4.476562 10-10s-4.480469-10-10-10h-192.085937c-5.523438 0-10 4.476562-10 10s4.476562 10 10 10zm0 0"/><path d="m219.996094 337.355469h192.085937c5.519531 0 10-4.480469 10-10 0-5.523438-4.480469-10-10-10h-192.085937c-5.523438 0-10 4.476562-10 10 0 5.523437 4.476562 10 10 10zm0 0"/><path d="m10 332.28125c5.507812 0 10-4.492188 10-10s-4.492188-10-10-10-10 4.492188-10 10 4.492188 10 10 10zm0 0"/><path d="m502 148.535156c-5.507812 0-10 4.492188-10 10 0 5.507813 4.492188 10 10 10s10-4.492187 10-10c0-5.507812-4.492188-10-10-10zm0 0"/></g></svg>