<svg height="512pt" viewBox="-16 0 512 512" width="512pt" xmlns="http://www.w3.org/2000/svg"><path d="m464 504c4.414062 0 8-3.585938 8-8v-480c0-4.414062-3.585938-8-8-8h-336c-4.414062 0-8 3.585938-8 8l.023438 488zm0 0" fill="#cf71fb"/><path d="m152.023438 456h207.976562l80-96v-304h-288zm0 0" fill="#fdf8ff"/><path d="m208 88h176c4.414062 0 8-3.585938 8-8v-72h-192v72c0 4.414062 3.585938 8 8 8zm0 0" fill="#f96437"/><path d="m344 40h16v16h-16zm0 0"/><path d="m232 40h16v16h-16zm0 0"/><path d="m288 40h16v16h-16zm0 0"/><path d="m440 360h-80v96zm0 0" fill="#e2aafd"/><path d="m464 0h-336c-8.824219 0-16 7.175781-16 16l.023438 80h16l-.023438-80h64v32h-40c-4.425781 0-8 3.574219-8 8v40h16v-32h32v16c0 8.824219 7.175781 16 16 16h176c8.824219 0 16-7.175781 16-16v-16h32v288h-72c-4.425781 0-8 3.574219-8 8v88h-32v16h40.496094c2.382812 0 4.640625-1.0625 6.167968-2.894531l78.878907-95.25.609375-.726563c.007812-.007812.007812-.015625.007812-.015625l.007813-.007812c.007812-.007813.007812-.027344.015625-.035157.542968-.664062.9375-1.398437 1.242187-2.175781.09375-.238281.132813-.496093.207031-.742187.160157-.566406.269532-1.144532.304688-1.738282 0-.140624.0625-.269531.0625-.414062v-304c0-4.425781-3.574219-8-8-8h-40v-32h64v480h-144v16h144c8.824219 0 16-7.175781 16-16v-480c0-8.824219-7.175781-16-16-16zm-96 368h54.921875l-54.921875 65.902344zm16-288h-176v-64h176zm0 0"/><path d="m320 120h88v208h-88zm0 0" fill="#f5e3fe"/><path d="m320 120h88v48h-88zm0 0" fill="#e2aafd"/><path d="m408 112h-88v16h80v32h-80v16h80v144h-80v16h88c4.425781 0 8-3.574219 8-8v-208c0-4.425781-3.574219-8-8-8zm0 0"/><path d="m296 504h-288v-384h288zm0 0" fill="#fff8f1"/><path d="m296 168h-288v-48h288zm0 0" fill="#fddf81"/><path d="m296 112h-288c-4.425781 0-8 3.574219-8 8v384c0 4.425781 3.574219 8 8 8h288c4.425781 0 8-3.574219 8-8v-384c0-4.425781-3.574219-8-8-8zm-280 16h272v32h-272zm0 368v-320h272v320zm0 0"/><path d="m48 368h112v16h-112zm0 0"/><path d="m176 368h48v16h-48zm0 0"/><path d="m240 368h16v16h-16zm0 0"/><path d="m224 400h16v16h-16zm0 0"/><path d="m48 432h112v16h-112zm0 0"/><path d="m176 432h48v16h-48zm0 0"/><path d="m240 432h16v16h-16zm0 0"/><path d="m144 464h112v16h-112zm0 0"/><path d="m80 464h48v16h-48zm0 0"/><path d="m48 464h16v16h-16zm0 0"/><path d="m48 400h48v16h-48zm0 0"/><path d="m112 400h16v16h-16zm0 0"/><path d="m144 400h64v16h-64zm0 0"/><path d="m32 136h16v16h-16zm0 0"/><path d="m64 136h16v16h-16zm0 0"/><path d="m96 136h16v16h-16zm0 0"/><path d="m240 136h32v16h-32zm0 0"/><path d="m96 208h-32c-8.824219 0-16 7.175781-16 16v80h16v-40h32v40h16v-80c0-8.824219-7.175781-16-16-16zm-32 40v-24h32v24zm0 0"/><path d="m176 208h-32c-8.824219 0-16 7.175781-16 16v80h16v-32h32c8.824219 0 16-7.175781 16-16v-32c0-8.824219-7.175781-16-16-16zm-32 48v-32h32l.015625 32zm0 0"/><path d="m256 224v-16h-48v16h16v64h-16v16h48v-16h-16v-64zm0 0"/></svg>