<svg enable-background="new 0 0 256 256" height="512" viewBox="0 0 256 256" width="512" xmlns="http://www.w3.org/2000/svg"><g id="Layer_7"><g><g><g><path d="m214.18 22.25h-172.36c-2.938 0-5.32 2.382-5.32 5.32v15.68h183v-15.68c0-2.938-2.382-5.32-5.32-5.32z" fill="#5290db"/></g></g><g><g><path d="m36.5 43.25v185.18c0 2.938 2.382 5.32 5.32 5.32h172.36c2.938 0 5.32-2.382 5.32-5.32v-185.18z" fill="#3a70bf"/></g></g><g><g><path d="m59 22.25h-17.18c-2.938 0-5.32 2.382-5.32 5.32v15.68h22.5z" fill="#fc657e"/></g></g><g><g><g><path d="m204.5 223.25h-153c-2.485 0-4.5-2.015-4.5-4.5v-108.666c0-2.485 2.015-4.5 4.5-4.5s4.5 2.015 4.5 4.5v104.166h144v-151.5h-112.767c-2.485 0-4.5-2.015-4.5-4.5s2.015-4.5 4.5-4.5h117.267c2.485 0 4.5 2.015 4.5 4.5v160.5c0 2.485-2.015 4.5-4.5 4.5z" fill="#67acef"/></g></g></g><g><g><path d="m74.391 69.826-20.186-15.166c-2.963-2.227-7.197-.112-7.197 3.594 0 1.414.665 2.745 1.795 3.594l15.402 11.572-15.402 11.573c-1.92 1.443-1.817 3.684-1.795 3.594 0 3.707 4.233 5.821 7.197 3.594l20.186-15.167c2.39-1.795 2.394-5.388 0-7.188z" fill="#fcdd86"/></g></g><g><g><path d="m96.399 84.421h-14.323c-2.394 0-4.335 1.941-4.335 4.335s1.941 4.335 4.335 4.335h14.323c2.394 0 4.335-1.941 4.335-4.335s-1.941-4.335-4.335-4.335z" fill="#fcdd86"/></g></g><g><g><path d="m29.332 178.883c-2.473-.46-4.421-2.37-4.891-4.792-.024-.122-.193-.122-.217 0-.47 2.422-2.419 4.331-4.892 4.792-.124.023-.124.189 0 .213 2.473.461 4.421 2.37 4.892 4.792.024.122.193.122.217 0 .47-2.422 2.419-4.331 4.891-4.792.124-.023.124-.19 0-.213z" fill="#f5c84c"/></g></g><g><g><circle cx="233.384" cy="76.627" fill="#70d6f9" r="3.377"/></g></g><g><g><path d="m146.952 249.159c-3.464.645-6.194 3.319-6.852 6.713-.033.17-.271.17-.304 0-.659-3.393-3.388-6.068-6.852-6.713-.174-.032-.174-.265 0-.298 3.464-.645 6.194-3.32 6.852-6.713.033-.17.271-.17.304 0 .658 3.393 3.388 6.068 6.852 6.713.174.033.174.266 0 .298z" fill="#fc657e"/></g></g><g><g><path d="m120.089 9.242h-1.824v1.824c0 1.366-1.107 2.473-2.473 2.473s-2.473-1.107-2.473-2.473v-1.824h-1.824c-1.366 0-2.473-1.107-2.473-2.473s1.107-2.473 2.473-2.473h1.824v-1.823c0-1.366 1.107-2.473 2.473-2.473s2.473 1.107 2.473 2.473v1.824h1.824c1.366 0 2.473 1.107 2.473 2.473s-1.108 2.472-2.473 2.472z" fill="#87d147"/></g></g><g><g><circle cx="147" cy="8.373" fill="#f5c84c" r="3.377"/></g></g><g><g><path d="m184 35.25h-111c-1.381 0-2.5-1.119-2.5-2.5s1.119-2.5 2.5-2.5h111c1.381 0 2.5 1.119 2.5 2.5s-1.119 2.5-2.5 2.5z"/></g></g><g><g><path d="m207.789 35.25h-10.885c-1.381 0-2.5-1.119-2.5-2.5s1.119-2.5 2.5-2.5h10.885c1.381 0 2.5 1.119 2.5 2.5s-1.12 2.5-2.5 2.5z"/></g></g><g><g><path d="m219.5 45.75h-183c-1.381 0-2.5-1.119-2.5-2.5v-15.68c0-4.312 3.508-7.82 7.82-7.82h172.36c4.312 0 7.82 3.508 7.82 7.82v15.68c0 1.381-1.119 2.5-2.5 2.5zm-180.5-5h178v-13.18c0-1.555-1.265-2.82-2.82-2.82h-172.36c-1.555 0-2.82 1.265-2.82 2.82z"/></g></g><g><g><path d="m214.18 236.25h-172.36c-4.312 0-7.82-3.508-7.82-7.82v-185.18c0-1.381 1.119-2.5 2.5-2.5s2.5 1.119 2.5 2.5v185.18c0 1.555 1.265 2.82 2.82 2.82h172.36c1.555 0 2.82-1.265 2.82-2.82v-185.18c0-1.381 1.119-2.5 2.5-2.5s2.5 1.119 2.5 2.5v185.18c0 4.312-3.508 7.82-7.82 7.82z"/></g></g><g><g><path d="m59 45c-1.381 0-2.5-1.119-2.5-2.5v-19.5c0-1.381 1.119-2.5 2.5-2.5s2.5 1.119 2.5 2.5v19.5c0 1.38-1.119 2.5-2.5 2.5z"/></g></g><g><g><g><path d="m204.5 225.75h-153c-3.86 0-7-3.14-7-7v-108.666c0-3.86 3.14-7 7-7s7 3.14 7 7v101.666h139v-146.5h-110.267c-3.86 0-7-3.14-7-7s3.14-7 7-7h117.267c3.86 0 7 3.14 7 7v160.5c0 3.86-3.14 7-7 7zm-153-117.666c-1.103 0-2 .897-2 2v108.666c0 1.103.897 2 2 2h153c1.103 0 2-.897 2-2v-160.5c0-1.103-.897-2-2-2h-117.267c-1.103 0-2 .897-2 2s.897 2 2 2h112.767c1.381 0 2.5 1.119 2.5 2.5v151.5c0 1.381-1.119 2.5-2.5 2.5h-144c-1.381 0-2.5-1.119-2.5-2.5v-104.166c0-1.103-.897-2-2-2z"/></g></g></g><g><g><path d="m51.512 95.59c-1.065 0-2.136-.246-3.133-.744-2.387-1.192-3.87-3.59-3.87-6.258-.063-1.528.655-3.986 2.794-5.593l12.742-9.574-12.742-9.574c-1.749-1.314-2.793-3.405-2.793-5.593 0-2.668 1.483-5.067 3.87-6.259 2.388-1.193 5.195-.938 7.329.666l20.186 15.167c1.774 1.334 2.792 3.373 2.792 5.592 0 2.221-1.018 4.26-2.792 5.593l-20.188 15.168c-1.242.933-2.712 1.409-4.195 1.409zm-2.008-7.154c.003.051.004.101.004.152 0 1.114.772 1.62 1.104 1.786.333.166 1.201.48 2.091-.19l20.186-15.167c.506-.38.796-.962.796-1.597 0-.633-.29-1.215-.796-1.596l-20.186-15.166c-.89-.668-1.759-.355-2.091-.19-.332.166-1.104.672-1.104 1.786 0 .625.298 1.221.797 1.596l15.402 11.573c.628.472.998 1.212.998 1.999s-.37 1.526-.998 1.999l-15.401 11.571c-.67.503-.783 1.233-.802 1.444z"/></g></g><g><g><path d="m96.399 95.592h-14.323c-3.769 0-6.835-3.066-6.835-6.835s3.066-6.835 6.835-6.835h14.323c3.769 0 6.835 3.066 6.835 6.835s-3.066 6.835-6.835 6.835zm-14.323-8.671c-1.012 0-1.835.823-1.835 1.835s.823 1.835 1.835 1.835h14.323c1.012 0 1.835-.823 1.835-1.835s-.823-1.835-1.835-1.835z"/></g></g></g></g></svg>