<svg id="Capa_1" data-name="Capa 1" xmlns="http://www.w3.org/2000/svg" viewBox="0 0 465.71 515.4"><defs><style>.cls-1{fill:#a5dcf0;}.cls-2{fill:#d8edee;}.cls-3{fill:#fff;}.cls-4{fill:#f05a2a;}.cls-5{fill:#f8ec3a;}.cls-6{fill:#e8af2e;}.cls-10,.cls-7{fill:none;stroke:#403f41;stroke-linecap:round;stroke-miterlimit:10;}.cls-7{stroke-width:4.9px;}.cls-8{fill:#a6a8ab;}.cls-9{fill:#221f1f;}.cls-10{stroke-width:4.08px;}.cls-11{fill:#fde039;}.cls-12{fill:#403f41;}</style></defs><path class="cls-1" d="M300.87,88.72C172.27,88.72,68,193,68,321.58S172.27,554.43,300.87,554.43,533.73,450.18,533.73,321.58,429.47,88.72,300.87,88.72Z" transform="translate(-68.02 -39.03)"/><path class="cls-2" d="M487.77,460.48a34.72,34.72,0,0,0-66.2-14,29.91,29.91,0,0,0-44.09,4.77,33.78,33.78,0,1,0-1.13,63.08l-.09.39A32.33,32.33,0,0,0,381.77,540,233.5,233.5,0,0,0,487.77,460.48Z" transform="translate(-68.02 -39.03)"/><path class="cls-2" d="M144.14,474.19a27.44,27.44,0,1,0,18-51.21c.2-.34.41-.7.6-1.06a28.51,28.51,0,0,0-36.89-39.35A25,25,0,0,0,87,370.88a24.13,24.13,0,0,0-15.38-8.19A232,232,0,0,0,124.5,473.61,24.76,24.76,0,0,0,136.34,468,27.62,27.62,0,0,0,144.14,474.19Zm-31-48.64c0-.81-.06-1.62-.14-2.43a24.34,24.34,0,0,0,1.38,2.09C114,425.31,113.53,425.43,113.13,425.55Z" transform="translate(-68.02 -39.03)"/><polygon class="cls-2" points="222.21 286 191.92 457.52 285.8 451.86 250.07 284.21 222.21 286"/><path class="cls-2" d="M370.52,480.12A15.59,15.59,0,0,0,363,460.94,22.81,22.81,0,1,0,324.52,438a23.27,23.27,0,0,0-1,4,23.8,23.8,0,0,0-3.13-1.39,24.34,24.34,0,0,0-21.79,43.14,21,21,0,0,0-1.36,31.06,24,24,0,0,0-1.9,4A23.68,23.68,0,0,0,339.81,535a23.44,23.44,0,0,0,1-12.71l.26.1a22.72,22.72,0,0,0,25.2-35.9A15.44,15.44,0,0,0,370.52,480.12Z" transform="translate(-68.02 -39.03)"/><path class="cls-2" d="M503.52,371.67a22.22,22.22,0,0,0-2.15,3.48,24.08,24.08,0,0,0-35.63,32.32,20.74,20.74,0,0,0-10.24,29,23.94,23.94,0,0,0-2.94,3.24A23.43,23.43,0,0,0,474.23,477a232.16,232.16,0,0,0,55.59-112.82A22.59,22.59,0,0,0,503.52,371.67Z" transform="translate(-68.02 -39.03)"/><path class="cls-2" d="M279.71,453.56a21.2,21.2,0,0,0,2.72-5.71c3-10-1.7-20.31-10.58-23-8-2.44-16.71,2.19-20.54,10.52-7.47-.24-14.73,5.19-17.27,13.55a18.92,18.92,0,0,0,3.63,18.22,13.75,13.75,0,0,0-8,8.95c-2.12,7,1.18,14.15,7.37,16a10.3,10.3,0,0,0,1.65.35.58.58,0,0,0-.05.14c-2.28,7.51,1.27,15.23,7.93,17.25s13.9-2.42,16.18-9.93a16.2,16.2,0,0,0,.68-4.06l.5.17c10.65,3.23,22.24-3.89,25.89-15.9C293.11,469.15,288.64,457.88,279.71,453.56Z" transform="translate(-68.02 -39.03)"/><path class="cls-2" d="M249.63,522.47a33.78,33.78,0,1,0-12.9-61.76c0-.13,0-.26,0-.39a32.4,32.4,0,0,0-60.82-14.68,22.23,22.23,0,0,0-32.16,17.61A32.59,32.59,0,0,0,117.4,465,233.48,233.48,0,0,0,221.64,540.6c.43,0,.85,0,1.28,0A29.94,29.94,0,0,0,249.63,522.47Z" transform="translate(-68.02 -39.03)"/><path class="cls-3" d="M481.59,468.41a34.33,34.33,0,0,0-7.68-4.74A34.73,34.73,0,0,0,432.26,474a29.9,29.9,0,0,0-44-5.22,34.17,34.17,0,0,0-5.49-3.11A33.78,33.78,0,1,0,373,530c-.05.12-.11.23-.16.35A32.3,32.3,0,0,0,370,544,233.11,233.11,0,0,0,481.59,468.41Z" transform="translate(-68.02 -39.03)"/><path class="cls-3" d="M152.77,492.13l.35-.18a32.4,32.4,0,0,0-14.38-60.89,22,22,0,0,0-2.67-10.57,22.24,22.24,0,0,0-27.56-10.18,32.56,32.56,0,0,0-32.68-28.75,233.25,233.25,0,0,0,92.64,131.58,33.86,33.86,0,0,0-15.7-21Z" transform="translate(-68.02 -39.03)"/><polygon class="cls-3" points="225.94 318.46 202.45 438.43 275.26 434.47 247.56 317.21 225.94 318.46"/><path class="cls-3" d="M340.78,539.37l.26.1a22.72,22.72,0,0,0,25.2-35.9,15.6,15.6,0,0,0-3.23-25.5,22.81,22.81,0,1,0-38.49-22.95,23.27,23.27,0,0,0-1,4,25.24,25.24,0,0,0-3.13-1.4,24.35,24.35,0,0,0-21.8,43.15,21,21,0,0,0-1.35,31,24.11,24.11,0,0,0-1.9,4,23.6,23.6,0,0,0,1,18.47c1.52,0,3.05,0,4.59,0a234,234,0,0,0,39.25-3.31A23.57,23.57,0,0,0,340.78,539.37Z" transform="translate(-68.02 -39.03)"/><path class="cls-3" d="M521.25,384.2a24.1,24.1,0,0,0-18.16,23.59A20.76,20.76,0,0,0,476.93,424a24.06,24.06,0,0,0-4.32.67,23.43,23.43,0,0,0,7.06,46.11,232.22,232.22,0,0,0,45.71-87.21A24.84,24.84,0,0,0,521.25,384.2Z" transform="translate(-68.02 -39.03)"/><path class="cls-3" d="M284.85,465.57a20.89,20.89,0,0,0,.47-6.31c-.76-10.44-8.89-18.34-18.14-17.66-8.38.62-14.81,8.06-15.38,17.21-7.06,2.47-11.88,10.15-11.24,18.86.53,7.09,4.53,13,9.95,15.69a13.74,13.74,0,0,0-4.28,11.24c.53,7.28,6.2,12.78,12.64,12.31a10.2,10.2,0,0,0,1.67-.27v.15c.58,7.82,6.67,13.75,13.61,13.24s12.1-7.27,11.52-15.09a15.68,15.68,0,0,0-.83-4l.54,0c11.1-.82,19.34-11.63,18.42-24.15C303,475.29,294.73,466.38,284.85,465.57Z" transform="translate(-68.02 -39.03)"/><path class="cls-3" d="M269.77,550.93a33.79,33.79,0,1,0-19.19-62.19v-.39a32.4,32.4,0,0,0-60.82-14.68,22.25,22.25,0,0,0-32.17,17.61,32.31,32.31,0,0,0-12.08-2,33.31,33.31,0,0,0-5.51.62,232.15,232.15,0,0,0,123.07,61.44c.14-.28.28-.56.41-.86A33.6,33.6,0,0,0,269.77,550.93Z" transform="translate(-68.02 -39.03)"/><path class="cls-3" d="M377.07,524.3a33.63,33.63,0,0,0-17.37,5.36c0-.13,0-.26,0-.39a32.4,32.4,0,0,0-60.82-14.68A22.25,22.25,0,0,0,266.7,532.2a32.54,32.54,0,0,0-37.26,11A233.5,233.5,0,0,0,399.9,532.37,33.68,33.68,0,0,0,377.07,524.3Z" transform="translate(-68.02 -39.03)"/><path class="cls-3" d="M448.82,207.12a12,12,0,0,0-2.56.82,13.28,13.28,0,0,0-24.8-5.53,11.87,11.87,0,0,0-20.14,6.19,13,13,0,0,0-4.77.05,13.14,13.14,0,0,0-10.32,10h76.43a11.64,11.64,0,0,0-13.84-11.57Zm-26.4,10.81c.12-.16.25-.33.36-.5.25.3.51.59.78.86A10.79,10.79,0,0,0,422.42,217.93Z" transform="translate(-68.02 -39.03)"/><path class="cls-3" d="M203.46,257.58a9,9,0,0,0-2,.64,9.71,9.71,0,0,0-.16-1.19,10.37,10.37,0,0,0-19.2-3.13,9.27,9.27,0,0,0-15.73,4.83,10.13,10.13,0,0,0-3.72,0,10.26,10.26,0,0,0-8.05,7.84h59.66a9,9,0,0,0-10.8-9ZM182.85,266c.1-.12.19-.25.28-.38.19.23.4.46.61.67C183.45,266.19,183.15,266.1,182.85,266Z" transform="translate(-68.02 -39.03)"/><path class="cls-4" d="M310,407.06c9.22-23.13,30.06-52.32,29.73-65.44s-15.51-31.37-32.17-30.95-30.9,19.19-30.56,32.54S310,407.06,310,407.06Z" transform="translate(-68.02 -39.03)"/><path class="cls-5" d="M309.54,390.41c7.54-18.9,24.57-42.76,24.29-53.48s-12.66-25.64-26.28-25.29-25.26,15.68-25,26.59S309.54,390.41,309.54,390.41Z" transform="translate(-68.02 -39.03)"/><path class="cls-3" d="M309.08,372.22c5.81-14.56,18.93-32.94,18.72-41.2s-9.76-19.76-20.26-19.5S288.08,323.61,288.3,332,309.08,372.22,309.08,372.22Z" transform="translate(-68.02 -39.03)"/><path class="cls-4" d="M282.44,380.5c9.36-13.66,27.13-29.57,28.82-38.13s-5.49-22.62-16.36-24.77-22.85,7.95-24.57,16.66S282.44,380.5,282.44,380.5Z" transform="translate(-68.02 -39.03)"/><path class="cls-5" d="M284.59,369.63c7.65-11.16,22.17-24.17,23.56-31.16s-4.49-18.48-13.38-20.24-18.67,6.5-20.08,13.61S284.59,369.63,284.59,369.63Z" transform="translate(-68.02 -39.03)"/><path class="cls-3" d="M286.94,357.77c5.89-8.61,17.09-18.63,18.15-24s-3.45-14.24-10.3-15.6-14.39,5-15.48,10.5S286.94,357.77,286.94,357.77Z" transform="translate(-68.02 -39.03)"/><path class="cls-4" d="M316.1,352.33c-.05-10.52,3.48-25.26,1.27-30.34s-11-9.83-17.49-7-9.07,12.42-6.82,17.59S316.1,352.33,316.1,352.33Z" transform="translate(-68.02 -39.03)"/><path class="cls-5" d="M313.29,345.87c0-8.59,2.85-20.64,1-24.79s-9-8-14.31-5.74-7.4,10.14-5.56,14.37S313.29,345.87,313.29,345.87Z" transform="translate(-68.02 -39.03)"/><path class="cls-3" d="M310.24,338.82c0-6.62,2.19-15.9.8-19.1s-7-6.19-11-4.42-5.71,7.81-4.29,11.07S310.24,338.82,310.24,338.82Z" transform="translate(-68.02 -39.03)"/><path class="cls-6" d="M390.22,128.38c-46.51,61.6-63.64,8.38-89.35,8.56-13.46.1-23.25,55.48-89.34-8.56a89.35,89.35,0,1,1,178.69,0Z" transform="translate(-68.02 -39.03)"/><path class="cls-6" d="M211.53,128.38c9.79,55.74,36.72,62.56,51.4,120.83,31.89,21.22,29.44,16.32,80.78,4.18,7.34-53.62,46.51-86,46.51-125C392.66,70,218.87,81.47,211.53,128.38Z" transform="translate(-68.02 -39.03)"/><path class="cls-7" d="M260.49,145.36s16.94,38.88,22.05,53.3,5.27,48.86,5.27,48.86" transform="translate(-68.02 -39.03)"/><path class="cls-7" d="M347.43,145.36s-16.93,38.88-22.05,53.3-5.27,48.86-5.27,48.86" transform="translate(-68.02 -39.03)"/><path class="cls-8" d="M272.62,276.17v27.57c0,8.48,5.5,15.35,12.29,15.35h36.86c6.78,0,12.28-6.87,12.28-15.35V276.17Z" transform="translate(-68.02 -39.03)"/><path class="cls-9" d="M257.32,242.35v44.71a15.34,15.34,0,0,0,15.34,15.35H334a15.34,15.34,0,0,0,15.34-15.35V242.35Z" transform="translate(-68.02 -39.03)"/><path class="cls-10" d="M286.13,159.56c0,6.46-4,11.7-8.91,11.7s-8.91-5.24-8.91-11.7,4-11.69,8.91-11.69S286.13,153.11,286.13,159.56Z" transform="translate(-68.02 -39.03)"/><path class="cls-10" d="M304,159.56c0,6.46-4,11.7-8.92,11.7s-8.91-5.24-8.91-11.7,4-11.69,8.91-11.69S304,153.11,304,159.56Z" transform="translate(-68.02 -39.03)"/><path class="cls-10" d="M321.79,159.56c0,6.46-4,11.7-8.91,11.7S304,166,304,159.56s4-11.69,8.92-11.69S321.79,153.11,321.79,159.56Z" transform="translate(-68.02 -39.03)"/><path class="cls-10" d="M339.61,159.56c0,6.46-4,11.7-8.91,11.7s-8.91-5.24-8.91-11.7,4-11.69,8.92-11.69S339.61,153.11,339.61,159.56Z" transform="translate(-68.02 -39.03)"/><path class="cls-11" d="M272.62,55.44C294.67,39.17,334,53,348.57,63.6c20.26,14.71,35.21,47.2,32.87,68.21S370.22,163.89,362,183.44c-2.94,6.95,10-21.18-5.74-59.12C344.44,96,310.39,88.79,287.81,86.18,272,84.35,250.69,71.63,272.62,55.44Z" transform="translate(-68.02 -39.03)"/><path class="cls-12" d="M352.47,255.82a2.15,2.15,0,0,1-2.1,2.21H255.86a2.15,2.15,0,0,1-2.1-2.2V252a2.16,2.16,0,0,1,2.1-2.21h94.51a2.16,2.16,0,0,1,2.1,2.21Z" transform="translate(-68.02 -39.03)"/><path class="cls-12" d="M352.47,269a2.16,2.16,0,0,1-2.1,2.21H255.86a2.16,2.16,0,0,1-2.1-2.21v-3.83a2.16,2.16,0,0,1,2.1-2.21h94.51a2.16,2.16,0,0,1,2.1,2.21Z" transform="translate(-68.02 -39.03)"/><path class="cls-12" d="M352.68,282.22a2.15,2.15,0,0,1-2.09,2.2H256.08a2.15,2.15,0,0,1-2.1-2.2v-3.84a2.16,2.16,0,0,1,2.1-2.21h94.51a2.16,2.16,0,0,1,2.1,2.21Z" transform="translate(-68.02 -39.03)"/></svg>