<svg xmlns="http://www.w3.org/2000/svg" version="1.1" xmlns:xlink="http://www.w3.org/1999/xlink" xmlns:svgjs="http://svgjs.com/svgjs" width="1920" height="620" preserveAspectRatio="none" viewBox="0 0 1920 620"><g mask="url(&quot;#SvgjsMask1117&quot;)" fill="none"><path d="M1048.159489603283 482.38449328122704L878.1735365575058 433.6418056015371 829.430848877816 603.6277586473142 999.4168019235931 652.3704463270042z" fill="rgba(223, 82, 134, 0.64)" class="triangle-float1"></path><path d="M1161.8118849893233 254.3198227283586L1008.3686678892356 267.5970229847211 1083.6554413823424 379.21425481086067z" fill="rgba(223, 82, 134, 0.64)" class="triangle-float3"></path><path d="M1441.5841378397552 546.2786743967592L1445.8065060450044 667.1914797760091 1566.7193114242546 662.9691115707599 1562.496943219005 542.0563061915099z" fill="rgba(223, 82, 134, 0.64)" class="triangle-float3"></path><path d="M579.0804744021401 299.16009326328776L576.9907283060564 412.68147037961677 664.625352086683 366.0853143753523z" fill="rgba(223, 82, 134, 0.64)" class="triangle-float3"></path><path d="M619.9493870331245 492.79237187697254L562.6230216603394 304.6451550991284 443.18681300722574 428.3249697236432z" fill="rgba(223, 82, 134, 0.64)" class="triangle-float2"></path><path d="M1150.705697168266 222.1758368407235L1267.6040790507948 113.16633219018365 1041.696192517726 105.27745495819457z" fill="rgba(223, 82, 134, 0.64)" class="triangle-float2"></path><path d="M1261.5120341238721 58.78565682757593L1375.9916193438805 93.78557842999386 1410.9915409462983-20.694006790014477 1296.5119557262901-55.69392839243242z" fill="rgba(223, 82, 134, 0.64)" class="triangle-float1"></path><path d="M1838.4855701524743 10.426241830142331L1817.700947081768 82.91083653671288 1936.820150676977 77.84547378948723z" fill="rgba(223, 82, 134, 0.64)" class="triangle-float1"></path><path d="M1833.1050857750033 241.8052273841221L1721.4302938429157 201.1589272029708 1680.7839936617645 312.83371913505835 1792.458785593852 353.4800193162097z" fill="rgba(223, 82, 134, 0.64)" class="triangle-float1"></path><path d="M1181.1267866185685 7.592618675226161L1076.0859579864277 31.84320477585873 1205.377372719201 112.63344730736685z" fill="rgba(223, 82, 134, 0.64)" class="triangle-float2"></path><path d="M1230.8799001460009 135.50950626227592L1052.2967272163578 107.22471036643451 1024.0119313205164 285.8078832960774 1202.5951042501595 314.0926791919189z" fill="rgba(223, 82, 134, 0.64)" class="triangle-float1"></path><path d="M1363.0830709600161 213.94286771235141L1514.7736835456099 111.6262575983234 1412.4570734315816-40.064354987270235 1260.7664608459881 62.252255126757774z" fill="rgba(223, 82, 134, 0.64)" class="triangle-float1"></path><path d="M711.026,358.899C754.738,356.643,786.056,321.094,806.874,282.591C826.472,246.345,834.693,203.431,814.507,167.509C793.957,130.94,752.973,111.741,711.026,112.03C669.601,112.316,632.12,133.9,609.987,168.918C586.073,206.754,575.338,253.939,596.356,293.458C618.505,335.104,663.919,361.331,711.026,358.899" fill="rgba(223, 82, 134, 0.64)" class="triangle-float2"></path><path d="M1870.525,263.128C1913.176,266.544,1962.44,264.182,1984.96,227.8C2008.201,190.253,1993.216,141.725,1968.189,105.344C1946.508,73.827,1908.778,61.149,1870.525,61.45C1832.896,61.746,1794.272,74.254,1775.489,106.861C1756.732,139.423,1764.445,179.595,1783.971,211.702C1802.661,242.434,1834.671,260.256,1870.525,263.128" fill="rgba(223, 82, 134, 0.64)" class="triangle-float2"></path><path d="M1214.8086876365132 613.4069448957192L1313.3617911520012 527.7360390390758 1129.1377817798698 514.8538413802314z" fill="rgba(223, 82, 134, 0.64)" class="triangle-float2"></path><path d="M1550.949,178.127C1585.623,176.957,1615.284,157.08,1634.067,127.91C1654.867,95.607,1670.253,55.399,1651.603,21.809C1632.58,-12.453,1590.126,-22.768,1550.949,-21.793C1513.715,-20.866,1477.785,-5.321,1458.616,26.613C1438.893,59.469,1437.566,101.147,1457.508,133.87C1476.731,165.413,1514.031,179.373,1550.949,178.127" fill="rgba(223, 82, 134, 0.64)" class="triangle-float1"></path><path d="M1732.8889669326268 44.96776502641539L1652.9959516658334 163.4140311177557 1771.4422177571737 243.3070463845491 1851.335233023967 124.86078029320876z" fill="rgba(223, 82, 134, 0.64)" class="triangle-float3"></path><path d="M1081.429010519552 470.2043028016763L1026.1361260527285 516.6005417645159 1123.3769267303996 576.3417489833314z" fill="rgba(223, 82, 134, 0.64)" class="triangle-float2"></path><path d="M1028.8007987655606 264.38606235136416L1146.2108849407953 138.47915969574092 1020.303982285172 21.069073520506265 902.8938961099374 146.9759761761295z" fill="rgba(223, 82, 134, 0.64)" class="triangle-float1"></path><path d="M426.2440084262381 176.22156326616195L469.7931550763756 278.81692343149365 528.8393685915698 132.67241661602446z" fill="rgba(223, 82, 134, 0.64)" class="triangle-float2"></path></g><defs><mask id="SvgjsMask1117"><rect width="1920" height="620" fill="#ffffff"></rect></mask><style>
            @keyframes float1 {
                0%{transform: translate(0, 0)}
                50%{transform: translate(-10px, 0)}
                100%{transform: translate(0, 0)}
            }

            .triangle-float1 {
                animation: float1 5s infinite;
            }

            @keyframes float2 {
                0%{transform: translate(0, 0)}
                50%{transform: translate(-5px, -5px)}
                100%{transform: translate(0, 0)}
            }

            .triangle-float2 {
                animation: float2 4s infinite;
            }

            @keyframes float3 {
                0%{transform: translate(0, 0)}
                50%{transform: translate(0, -10px)}
                100%{transform: translate(0, 0)}
            }

            .triangle-float3 {
                animation: float3 6s infinite;
            }
        </style></defs></svg>